<svg height='100px' width='100px'  fill="#9a1a18" xmlns="http://www.w3.org/2000/svg" xmlns:xlink="http://www.w3.org/1999/xlink" version="1.1" x="0px" y="0px" viewBox="0 0 64 64" style="enable-background:new 0 0 64 64;" xml:space="preserve"><path d="M53,43c-5.514,0-10,4.486-10,10s4.486,10,10,10s10-4.486,10-10S58.514,43,53,43z M49,59.918V59c0-1.654,1.346-3,3-3h2  c1.654,0,3,1.346,3,3v0.918C55.822,60.602,54.458,61,53,61S50.178,60.602,49,59.918z M53,54c-1.103,0-2-0.897-2-2s0.897-2,2-2  s2,0.897,2,2S54.103,54,53,54z M58.934,58.346c-0.227-1.715-1.313-3.153-2.823-3.863C56.658,53.799,57,52.943,57,52  c0-2.206-1.794-4-4-4s-4,1.794-4,4c0,0.943,0.342,1.799,0.89,2.484c-1.511,0.709-2.596,2.147-2.823,3.863  C45.787,56.928,45,55.056,45,53c0-4.411,3.589-8,8-8s8,3.589,8,8C61,55.056,60.213,56.928,58.934,58.346z"></path><path d="M53,22c-5.514,0-10,4.486-10,10s4.486,10,10,10s10-4.486,10-10S58.514,22,53,22z M49,38.918V38c0-1.654,1.346-3,3-3h2  c1.654,0,3,1.346,3,3v0.918C55.822,39.602,54.458,40,53,40S50.178,39.602,49,38.918z M53,33c-1.103,0-2-0.897-2-2s0.897-2,2-2  s2,0.897,2,2S54.103,33,53,33z M58.934,37.346c-0.227-1.715-1.313-3.153-2.823-3.863C56.658,32.799,57,31.943,57,31  c0-2.206-1.794-4-4-4s-4,1.794-4,4c0,0.943,0.342,1.799,0.89,2.484c-1.511,0.709-2.596,2.147-2.823,3.863  C45.787,35.928,45,34.056,45,32c0-4.411,3.589-8,8-8s8,3.589,8,8C61,34.056,60.213,35.928,58.934,37.346z"></path><path d="M53,1c-5.514,0-10,4.486-10,10s4.486,10,10,10s10-4.486,10-10S58.514,1,53,1z M49,17.918V17c0-1.654,1.346-3,3-3h2  c1.654,0,3,1.346,3,3v0.918C55.822,18.602,54.458,19,53,19S50.178,18.602,49,17.918z M53,12c-1.103,0-2-0.897-2-2s0.897-2,2-2  s2,0.897,2,2S54.103,12,53,12z M58.934,16.346c-0.227-1.715-1.313-3.153-2.823-3.863C56.658,11.799,57,10.943,57,10  c0-2.206-1.794-4-4-4s-4,1.794-4,4c0,0.943,0.342,1.799,0.89,2.484c-1.511,0.709-2.596,2.147-2.823,3.863  C45.787,14.928,45,13.056,45,11c0-4.411,3.589-8,8-8s8,3.589,8,8C61,13.056,60.213,14.928,58.934,16.346z"></path><path d="M2,50h22c0.552,0,1-0.448,1-1v-4h-2v3H3V20h20v7h2v-8c0-0.552-0.448-1-1-1H2c-0.552,0-1,0.448-1,1v30  C1,49.552,1.448,50,2,50z"></path><path d="M24.184,42.949C24.286,42.983,24.393,43,24.5,43h4c1.654,0,3-1.346,3-3v-0.171c1.164-0.413,2-1.525,2-2.829v-0.171  c1.164-0.413,2-1.525,2-2.829h3c1.378,0,2.5-1.122,2.5-2.5S39.878,29,38.5,29H25.408c-0.792,0-1.56,0.232-2.219,0.672L21.197,31H16  v2h5.5c0.197,0,0.391-0.059,0.555-0.168l2.244-1.496c0.33-0.22,0.713-0.336,1.109-0.336H38.5c0.276,0,0.5,0.224,0.5,0.5  S38.776,32,38.5,32h-4c-0.552,0-1,0.448-1,1v1c0,0.551-0.449,1-1,1c-0.552,0-1,0.448-1,1v1c0,0.551-0.449,1-1,1  c-0.552,0-1,0.448-1,1v1c0,0.551-0.449,1-1,1h-3.838l-2.846-0.949C21.714,40.017,21.607,40,21.5,40H16v2h5.338L24.184,42.949z"></path><rect x="10" y="22" width="6" height="2"></rect><rect x="5" y="26" width="5" height="2"></rect><rect x="12" y="26" width="6" height="2"></rect><rect x="5" y="44" width="11" height="2"></rect><rect x="5" y="30" width="4" height="2"></rect><rect x="5" y="39" width="5" height="2"></rect><rect x="5" y="34" width="5" height="2"></rect><rect x="39.414" y="38.586" transform="matrix(0.7071 -0.7071 0.7071 0.7071 -15.8613 40.8787)" width="4" height="2"></rect><rect x="40.414" y="21.414" transform="matrix(0.7071 -0.7071 0.7071 0.7071 -4.4264 36.1422)" width="2" height="4"></rect><rect x="4" y="2" width="2" height="2"></rect><rect x="4" y="6" width="2" height="2"></rect><rect x="6" y="4" width="2" height="2"></rect><rect x="2" y="4" width="2" height="2"></rect><rect x="4" y="56" width="2" height="2"></rect><rect x="4" y="60" width="2" height="2"></rect><rect x="6" y="58" width="2" height="2"></rect><rect x="2" y="58" width="2" height="2"></rect></svg>