<svg height='100px' width='100px'  fill="#9a1a18" xmlns="http://www.w3.org/2000/svg" xmlns:xlink="http://www.w3.org/1999/xlink" version="1.1" x="0px" y="0px" viewBox="0 0 64 64" enable-background="new 0 0 64 64" xml:space="preserve"><path d="M48,4.003H16c-3.955,0-5,3.271-5,5v50.998h42V9.003C53,5.048,49.729,4.003,48,4.003z M16,6.003h31.994  C48.496,6.009,51,6.18,51,9.003v42.995H38.92c-0.489-3.385-3.402-5.997-6.92-5.997c-3.518,0-6.431,2.612-6.92,5.997H13V9.008  C13.006,8.506,13.177,6.003,16,6.003z M37,58.001H27v-5c0-2.757,2.243-5,5-5s5,2.243,5,5V58.001z M13,53.998h12v4.003H13V53.998z   M39,58.001v-4.003h12v4.003H39z M24.998,10.002h-10v10h10V10.002z M22.998,18.002h-6v-6h6V18.002z M36.995,10.002h-10v10h10V10.002  z M34.995,18.002h-6v-6h6V18.002z M49.002,10.002h-10v10h10V10.002z M47.002,18.002h-6v-6h6V18.002z M24.998,22.009h-10v10h10  V22.009z M22.998,30.009h-6v-6h6V30.009z M36.995,22.009h-10v10h10V22.009z M34.995,30.009h-6v-6h6V30.009z M49.002,22.009h-10v10  h10V22.009z M47.002,30.009h-6v-6h6V30.009z M24.998,34.017h-10v10h10V34.017z M22.998,42.017h-6v-6h6V42.017z M36.995,34.017h-10  v10h10V34.017z M34.995,42.017h-6v-6h6V42.017z M49.002,34.017h-10v10h10V34.017z M47.002,42.017h-6v-6h6V42.017z"></path></svg>