<svg height='100px' width='100px'  fill="#9a1a18" xmlns="http://www.w3.org/2000/svg" xmlns:xlink="http://www.w3.org/1999/xlink" version="1.1" x="0px" y="0px" viewBox="0 0 100 100" style="enable-background:new 0 0 100 100;" xml:space="preserve"><g><path d="M20.19,87h55.62c3.41,0,6.19-2.78,6.19-6.19V19.19c0-3.41-2.78-6.19-6.19-6.19H20.19C16.78,13,14,15.78,14,19.19v61.62   C14,84.22,16.78,87,20.19,87z M27,17h48.81c1.21,0,2.19,0.98,2.19,2.19v61.62c0,1.21-0.98,2.19-2.19,2.19H27V17z M18,76.12V19.19   c0-1.21,0.98-2.19,2.19-2.19H23v66h-2.81C18.98,83,18,82.02,18,80.81V76.12z"></path><path d="M51,48c5.51,0,10-4.49,10-10s-4.49-10-10-10s-10,4.49-10,10S45.49,48,51,48z M51,32c3.31,0,6,2.69,6,6s-2.69,6-6,6   s-6-2.69-6-6S47.69,32,51,32z"></path><path d="M56.13,50H45.87C39.33,50,34,55.33,34,61.87v4.97c0,1.74,1.42,3.16,3.16,3.16h27.68c1.74,0,3.16-1.42,3.16-3.16v-4.97   C68,55.33,62.67,50,56.13,50z M64,66H38v-4.13c0-4.34,3.53-7.87,7.87-7.87h10.25c4.34,0,7.87,3.53,7.87,7.87V66z"></path></g></svg>