<svg height='100px' width='100px'  fill="#9a1a18" xmlns="http://www.w3.org/2000/svg" xmlns:xlink="http://www.w3.org/1999/xlink" version="1.1" x="0px" y="0px" viewBox="0 0 100 100" style="enable-background:new 0 0 100 100;" xml:space="preserve"><g><path d="M67.4,62.981c0.39,0.389,0.9,0.583,1.411,0.583c0.513,0,1.026-0.196,1.417-0.589c0.779-0.782,0.777-2.049-0.006-2.828   L44.658,34.687c-0.781-0.779-2.049-0.778-2.828,0.006c-0.779,0.782-0.777,2.049,0.006,2.828L67.4,62.981z"></path><path d="M40.946,50.896c0.39,0.389,0.9,0.583,1.411,0.583c0.514,0,1.026-0.196,1.417-0.589c0.779-0.783,0.777-2.049-0.006-2.828   l-6.59-6.563c-0.783-0.78-2.049-0.777-2.828,0.006s-0.777,2.049,0.006,2.828L40.946,50.896z"></path><path d="M93.487,20.311L79.689,6.513c-2.015-2.015-5.293-2.014-7.306,0L49.287,29.611l-7.741-7.514l-5.246-5.247   c-0.006-0.006-0.01-0.013-0.015-0.019l-5.27-5.27l-3.606-3.607c-1.732-1.732-4.036-2.687-6.486-2.687s-4.754,0.954-6.486,2.687   l-6.749,6.749c-3.576,3.577-3.576,9.396,0,12.973l3.607,3.607c0.001,0.001,0.002,0.001,0.003,0.002l5.267,5.267   c0.006,0.006,0.013,0.01,0.019,0.015l5.252,5.251c0.003,0.003,0.006,0.005,0.009,0.007c0.004,0.004,0.007,0.009,0.011,0.014   l7.714,7.488L6.512,72.385c-2.013,2.014-2.012,5.291,0.001,7.304l13.798,13.798c1.007,1.007,2.33,1.511,3.652,1.511   c1.323,0,2.646-0.503,3.653-1.511l23.072-23.072l17.68,17.791c0.021,0.021,0.046,0.036,0.068,0.056   c0.064,0.059,0.13,0.115,0.202,0.166c0.038,0.027,0.078,0.051,0.118,0.075c0.075,0.045,0.15,0.087,0.231,0.122   c0.041,0.018,0.083,0.033,0.125,0.048c0.053,0.019,0.103,0.046,0.159,0.061l23.092,6.199C92.532,94.978,92.707,95,92.88,95   c0.523,0,1.034-0.206,1.414-0.586c0.506-0.505,0.703-1.242,0.518-1.933l-6.199-23.092c-0.014-0.05-0.038-0.096-0.056-0.145   c-0.017-0.048-0.034-0.095-0.054-0.141c-0.033-0.076-0.072-0.147-0.114-0.218c-0.027-0.045-0.055-0.089-0.086-0.132   c-0.048-0.068-0.1-0.131-0.156-0.193c-0.019-0.021-0.032-0.044-0.052-0.064l-17.689-17.8l23.083-23.082   C95.501,25.601,95.5,22.325,93.487,20.311z M10.515,17.532l6.749-6.749c0.978-0.978,2.276-1.516,3.658-1.516   s2.681,0.538,3.658,1.515l2.192,2.193l-7.032,7.032l-7.032,7.032l-2.193-2.193C8.498,22.831,8.498,19.549,10.515,17.532z    M29.256,23.865c-0.781-0.781-2.047-0.781-2.828,0l-8.448,8.448l-2.444-2.444l14.064-14.064l2.444,2.443l-1.565,1.565   c-0.781,0.781-0.781,2.047,0,2.828c0.781,0.781,2.047,0.781,2.828,0l1.563-1.563l2.438,2.438L23.248,37.577l-2.438-2.438   l8.446-8.446C30.037,25.912,30.037,24.646,29.256,23.865z M39.164,27.317l0.994-0.994l7.734,7.506   c0.001,0.001,0.001,0.002,0.002,0.002c0.001,0.001,0.002,0.001,0.003,0.002l18.267,18.268L83.08,69.126l-2.788,1.049l-6.374-6.348   c-0.781-0.779-2.049-0.777-2.828,0.006c-0.779,0.783-0.777,2.049,0.006,2.828l6.468,6.441l-0.928,3.485L73,77.175L47.608,51.886   c-0.781-0.779-2.049-0.778-2.828,0.006c-0.779,0.782-0.777,2.049,0.006,2.828L70.02,79.852l-1.093,3.242L52.106,66.168   L33.812,47.872l-7.714-7.488L39.164,27.317z M24.788,90.659c-0.456,0.455-1.195,0.454-1.649,0L9.341,76.861   c-0.454-0.454-0.454-1.194,0-1.648l4.569-4.569l6.636,6.635c0.391,0.391,0.902,0.586,1.414,0.586s1.023-0.195,1.414-0.586   c0.781-0.781,0.781-2.047,0-2.828l-6.636-6.635l3.655-3.655l3.813,3.813c0.391,0.391,0.902,0.586,1.414,0.586   s1.023-0.195,1.414-0.586c0.781-0.781,0.781-2.047,0-2.828l-3.813-3.813l3.655-3.655l3.813,3.813   c0.391,0.391,0.902,0.586,1.414,0.586s1.023-0.195,1.414-0.586c0.781-0.781,0.781-2.047,0-2.828l-3.813-3.813l2.713-2.713   l15.446,15.447L24.788,90.659z M73.822,81.094l4.731-0.766c0.778-0.126,1.41-0.698,1.613-1.46l1.293-4.859l3.861-1.453l3.846,14.33   l-2.402,2.402l-14.402-3.867L73.822,81.094z M90.659,24.788L67.582,47.865L52.135,32.418l2.712-2.712l3.812,3.812   c0.391,0.391,0.902,0.586,1.414,0.586s1.023-0.195,1.414-0.586c0.781-0.781,0.781-2.047,0-2.828l-3.812-3.812l3.655-3.655   l3.812,3.812c0.391,0.391,0.902,0.586,1.414,0.586s1.023-0.195,1.414-0.586c0.781-0.781,0.781-2.047,0-2.828l-3.812-3.812   l3.655-3.655l6.636,6.635c0.391,0.391,0.902,0.586,1.414,0.586s1.023-0.195,1.414-0.586c0.781-0.781,0.781-2.047,0-2.828   l-6.636-6.635l4.569-4.569c0.456-0.454,1.195-0.453,1.649,0l13.798,13.798C91.113,23.593,91.113,24.333,90.659,24.788z"></path><path d="M83.198,22.961l-3.279,3.278c-0.781,0.781-0.781,2.047,0,2.829c0.391,0.391,0.902,0.586,1.414,0.586   s1.023-0.195,1.414-0.585l3.279-3.279c0.781-0.781,0.781-2.047,0-2.828C85.245,22.18,83.979,22.18,83.198,22.961z"></path><path d="M76.033,30.126l-7.773,7.773c-0.781,0.781-0.781,2.047,0,2.828c0.391,0.391,0.902,0.586,1.414,0.586   s1.023-0.195,1.414-0.586l7.773-7.773c0.781-0.781,0.781-2.047,0-2.828C78.08,29.345,76.814,29.345,76.033,30.126z"></path></g></svg>