<svg height='100px' width='100px'  fill="#9a1a18" xmlns="http://www.w3.org/2000/svg" xmlns:xlink="http://www.w3.org/1999/xlink" version="1.1" x="0px" y="0px" viewBox="0 0 100 100" enable-background="new 0 0 100 100" xml:space="preserve"><g><path d="M81.001,19.5h-7v-7c0-2.2-1.8-4-4-4H18.999c-2.2,0-4,1.8-4,4v64c0,2.2,1.8,4,4,4h7v7c0,2.2,1.8,4,4,4h51c2.2,0,4-1.8,4-4   l0.002-64C85.001,21.3,83.201,19.5,81.001,19.5z M18.999,77.5c-0.542,0-1-0.458-1-1v-64c0-0.542,0.458-1,1-1h51.002   c0.542,0,1,0.458,1,1v7H29.999c-2.2,0-4,1.8-4,4v54H18.999z M81.999,87.5c0,0.542-0.458,1-1,1h-51c-0.542,0-1-0.458-1-1v-64   c0-0.542,0.458-1,1-1h51.002c0.542,0,1,0.458,1,1L81.999,87.5z"></path><path d="M41.001,46h29.998c0.828,0,1.5-0.672,1.5-1.5c0-0.829-0.672-1.5-1.5-1.5H41.001c-0.828,0-1.5,0.671-1.5,1.5   C39.501,45.328,40.173,46,41.001,46z"></path><path d="M41.001,36h29.998c0.828,0,1.5-0.672,1.5-1.5c0-0.829-0.672-1.5-1.5-1.5H41.001c-0.828,0-1.5,0.671-1.5,1.5   C39.501,35.328,40.173,36,41.001,36z"></path><path d="M41.001,56h29.998c0.828,0,1.5-0.672,1.5-1.5c0-0.829-0.672-1.5-1.5-1.5H41.001c-0.828,0-1.5,0.671-1.5,1.5   C39.501,55.328,40.173,56,41.001,56z"></path><path d="M61.999,64c-0.828,0-1.5,0.671-1.5,1.5v12c0,0.828,0.672,1.5,1.5,1.5s1.5-0.672,1.5-1.5v-12   C63.499,64.672,62.827,64,61.999,64z"></path><path d="M71.999,67c-0.828,0-1.5,0.671-1.5,1.5v9c0,0.828,0.672,1.5,1.5,1.5s1.5-0.672,1.5-1.5v-9   C73.499,67.672,72.827,67,71.999,67z"></path><path d="M66.999,70c-0.828,0-1.5,0.671-1.5,1.5v6c0,0.828,0.672,1.5,1.5,1.5s1.5-0.672,1.5-1.5v-6   C68.499,70.672,67.827,70,66.999,70z"></path><path d="M46.499,62c-4.971,0.001-8.999,4.028-9,9c0.001,4.972,4.029,8.999,9,9c4.971-0.001,8.999-4.028,9-9   C55.498,66.028,51.47,62.001,46.499,62z M40.499,71c0.001-1.662,0.669-3.152,1.758-4.243c1.09-1.088,2.581-1.756,4.242-1.757   c1.661,0.001,3.152,0.669,4.242,1.757c1.078,1.08,1.742,2.553,1.756,4.196l-5.635-1.409c-0.51-0.128-1.052,0.022-1.424,0.395   s-0.522,0.914-0.395,1.424l1.408,5.634c-1.643-0.014-3.116-0.677-4.195-1.755C41.168,74.152,40.5,72.662,40.499,71z M49.362,76.274   l-0.803-3.212l3.213,0.803c-0.277,0.507-0.625,0.971-1.031,1.378C50.334,75.649,49.87,75.998,49.362,76.274z"></path></g></svg>