<svg height='100px' width='100px'  fill="#9a1a18" xmlns="http://www.w3.org/2000/svg" xmlns:xlink="http://www.w3.org/1999/xlink" viewBox="0 0 62 69" version="1.1" x="0px" y="0px"><title>12@1x</title><desc>Created with Sketch.</desc><g stroke="none" stroke-width="1" fill="none" fill-rule="evenodd"><g transform="translate(-239.000000, -621.000000)" fill="#9a1a18"><g transform="translate(136.000000, 220.000000)"><g transform="translate(0.000000, 298.000000)"><g transform="translate(14.000000, 103.000000)"><g transform="translate(89.000000, 0.000000)"><path d="M30.8924,58.4132 C31.6754,58.4132 32.3104,59.0462 32.3104,59.8272 L32.3104,67.4732 C32.3104,68.2532 31.6754,68.8872 30.8924,68.8872 C30.1094,68.8872 29.4744,68.2532 29.4744,67.4732 L29.4744,59.8272 C29.4744,59.0462 30.1094,58.4132 30.8924,58.4132 Z M18.1248,58.4132 C18.9078,58.4132 19.5428,59.0452 19.5428,59.8262 L19.5428,63.6492 C19.5428,64.4312 18.9078,65.0632 18.1248,65.0632 C17.3408,65.0632 16.7068,64.4312 16.7068,63.6492 L16.7068,59.8262 C16.7068,59.0452 17.3408,58.4132 18.1248,58.4132 Z M43.659,58.4132 C44.442,58.4132 45.077,59.0452 45.077,59.8262 L45.077,63.6492 C45.077,64.4312 44.442,65.0632 43.659,65.0632 C42.876,65.0632 42.241,64.4312 42.241,63.6492 L42.241,59.8262 C42.241,59.0452 42.876,58.4132 43.659,58.4132 Z M61.734,53.462 C61.729,53.484 61.721,53.504 61.715,53.525 C61.665,53.687 61.589,53.836 61.489,53.967 C61.483,53.975 61.482,53.984 61.476,53.991 C61.463,54.008 61.446,54.019 61.432,54.034 C61.387,54.086 61.34,54.134 61.288,54.178 C61.261,54.202 61.234,54.226 61.204,54.247 C61.151,54.286 61.094,54.32 61.034,54.352 C61.005,54.367 60.977,54.386 60.948,54.399 C60.879,54.43 60.807,54.452 60.733,54.472 C60.71,54.479 60.688,54.488 60.665,54.493 C60.568,54.514 60.468,54.526 60.365,54.526 L1.418,54.526 C1.315,54.526 1.215,54.514 1.118,54.493 C1.096,54.488 1.075,54.479 1.053,54.473 C0.979,54.453 0.906,54.43 0.836,54.399 C0.806,54.386 0.78,54.368 0.751,54.353 C0.691,54.32 0.633,54.286 0.579,54.246 C0.55,54.226 0.523,54.202 0.496,54.178 C0.444,54.134 0.396,54.086 0.351,54.034 C0.338,54.019 0.321,54.008 0.308,53.991 C0.302,53.984 0.301,53.975 0.295,53.967 C0.194,53.835 0.117,53.686 0.068,53.523 C0.062,53.503 0.055,53.484 0.05,53.465 C0.021,53.352 0,53.234 0,53.112 L0,18.39 C0,18.287 0.011,18.187 0.032,18.09 C-0.063,17.65 0.054,17.173 0.387,16.821 L9.701,6.989 L9.701,1.413 C9.701,0.633 10.336,0 11.119,0 L50.664,0 C51.448,0 52.083,0.633 52.083,1.413 L52.083,6.989 L61.396,16.821 C61.729,17.172 61.846,17.65 61.752,18.089 C61.777,18.204 61.787,18.32 61.783,18.435 L61.783,53.112 C61.783,53.234 61.763,53.35 61.734,53.462 Z M25.22,32.463 L2.837,20.73 L2.837,50.184 L25.22,32.463 Z M9.701,11.108 L3.355,17.807 L9.701,21.134 L9.701,11.108 Z M12.537,22.286 C12.537,22.395 12.525,22.5 12.502,22.602 L30.892,32.241 L49.282,22.602 C49.259,22.5 49.246,22.395 49.246,22.286 L49.246,7.582 L49.246,7.523 L49.246,2.827 L12.537,2.827 L12.537,7.532 C12.538,7.545 12.538,7.559 12.537,7.572 L12.537,22.286 Z M43.8626,18.487 C43.8626,19.267 43.2276,19.901 42.4446,19.901 L19.3406,19.901 C18.5566,19.901 17.9216,19.267 17.9216,18.487 C17.9216,17.705 18.5566,17.073 19.3406,17.073 L42.4446,17.073 C43.2276,17.073 43.8626,17.705 43.8626,18.487 Z M19.3402,11.9625 C18.5562,11.9625 17.9212,11.3295 17.9212,10.5485 C17.9212,9.7675 18.5562,9.1345 19.3402,9.1345 L42.4442,9.1345 C43.2272,9.1345 43.8622,9.7675 43.8622,10.5485 C43.8622,11.3295 43.2272,11.9625 42.4442,11.9625 L19.3402,11.9625 Z M58.947,20.73 L31.552,35.09 C31.345,35.198 31.118,35.253 30.892,35.253 C30.666,35.253 30.439,35.198 30.233,35.09 L27.944,33.891 C27.917,33.915 27.904,33.949 27.874,33.973 L5.485,51.698 L56.299,51.698 L38.338,37.478 C37.725,36.993 37.622,36.103 38.11,35.492 C38.598,34.881 39.489,34.778 40.102,35.264 L58.947,50.184 L58.947,20.73 Z M52.083,11.109 L52.083,21.134 L58.429,17.807 L52.083,11.109 Z"></path></g></g></g></g></g></g></svg>