<svg height='100px' width='100px'  fill="#9a1a18" xmlns="http://www.w3.org/2000/svg" xmlns:xlink="http://www.w3.org/1999/xlink" version="1.1" x="0px" y="0px" viewBox="0 0 64 64" style="enable-background:new 0 0 64 64;" xml:space="preserve"><path d="M32,23c-4.963,0-9,4.037-9,9s4.037,9,9,9s9-4.037,9-9S36.963,23,32,23z M28.025,37.755C28.152,36.217,29.43,35,31,35h2  c1.57,0,2.848,1.217,2.975,2.755C34.845,38.538,33.476,39,32,39S29.155,38.538,28.025,37.755z M32,33c-1.103,0-2-0.897-2-2  s0.897-2,2-2s2,0.897,2,2S33.103,33,32,33z M37.632,36.139c-0.474-1.174-1.381-2.119-2.522-2.655C35.659,32.799,36,31.943,36,31  c0-2.206-1.794-4-4-4s-4,1.794-4,4c0,0.943,0.341,1.799,0.889,2.484c-1.141,0.536-2.048,1.481-2.522,2.655  C25.512,34.978,25,33.549,25,32c0-3.859,3.141-7,7-7s7,3.141,7,7C39,33.549,38.488,34.978,37.632,36.139z"></path><path d="M47,35v-6c0-0.553-0.447-1-1-1l-1.651-0.026c-0.207-0.637-0.466-1.263-0.784-1.882l1.163-1.163  c0.391-0.391,0.391-1.023,0-1.414l-4.242-4.242c-0.391-0.391-1.023-0.391-1.414,0l-1.187,1.147  c-0.596-0.303-1.222-0.562-1.885-0.773V18c0-0.553-0.447-1-1-1h-6c-0.553,0-1,0.447-1,1l-0.026,1.651  c-0.637,0.207-1.263,0.466-1.882,0.784l-1.163-1.163c-0.391-0.391-1.023-0.391-1.414,0l-4.242,4.242  c-0.391,0.391-0.391,1.023,0,1.414l1.147,1.187c-0.303,0.596-0.562,1.222-0.773,1.885H18c-0.553,0-1,0.447-1,1v6  c0,0.553,0.447,1,1,1l1.651,0.026c0.207,0.639,0.466,1.264,0.784,1.882l-1.163,1.163c-0.391,0.391-0.391,1.023,0,1.414l4.242,4.242  c0.391,0.391,1.023,0.391,1.414,0l1.187-1.148c0.595,0.304,1.22,0.562,1.885,0.774V46c0,0.553,0.447,1,1,1h6c0.553,0,1-0.447,1-1  l0.026-1.651c0.639-0.207,1.264-0.466,1.882-0.784l1.163,1.163c0.391,0.391,1.023,0.391,1.414,0l4.242-4.242  c0.391-0.391,0.391-1.023,0-1.414l-1.148-1.187c0.304-0.595,0.562-1.22,0.774-1.885H46C46.553,36,47,35.553,47,35z M45,34h-0.646  c-0.865,0-1.632,0.565-1.907,1.409c-0.175,0.538-0.393,1.065-0.649,1.568c-0.401,0.789-0.26,1.731,0.354,2.345l0.456,0.456  l-2.828,2.828l-0.456-0.456c-0.613-0.614-1.556-0.755-2.346-0.353c-0.502,0.256-1.029,0.474-1.569,0.649  C34.565,42.722,34,43.488,34,44.354V45h-4v-0.646c0-0.865-0.565-1.632-1.409-1.907c-0.538-0.175-1.065-0.393-1.568-0.649  c-0.788-0.402-1.732-0.261-2.345,0.354l-0.456,0.456l-2.828-2.828l0.456-0.456c0.613-0.613,0.755-1.556,0.353-2.346  c-0.256-0.502-0.474-1.029-0.649-1.569C21.278,34.565,20.512,34,19.646,34H19v-4h0.646c0.865,0,1.632-0.565,1.907-1.409  c0.175-0.538,0.393-1.065,0.648-1.568c0.402-0.789,0.261-1.731-0.353-2.345l-0.456-0.456l2.828-2.828l0.456,0.456  c0.612,0.613,1.555,0.756,2.344,0.354c0.504-0.257,1.031-0.475,1.571-0.65C29.435,21.278,30,20.512,30,19.646V19h4v0.646  c0,0.865,0.565,1.632,1.409,1.907c0.538,0.175,1.065,0.393,1.568,0.648c0.789,0.404,1.731,0.26,2.345-0.353l0.456-0.456l2.828,2.828  l-0.456,0.456c-0.613,0.613-0.755,1.556-0.354,2.344c0.257,0.504,0.475,1.031,0.65,1.571C42.722,29.435,43.488,30,44.354,30H45V34z"></path><path d="M15.948,7.267c-0.119-0.355-0.427-0.614-0.797-0.671l-3.618-0.554L9.905,2.575C9.74,2.224,9.388,2,9,2  S8.26,2.224,8.095,2.575L6.467,6.042L2.849,6.596c-0.37,0.057-0.678,0.315-0.797,0.671S2.022,8.014,2.284,8.282l2.647,2.713  l-0.627,3.844c-0.062,0.378,0.099,0.758,0.411,0.979c0.313,0.221,0.726,0.244,1.06,0.058L9,14.093l3.225,1.782  C12.375,15.959,12.542,16,12.708,16c0.202,0,0.404-0.062,0.576-0.183c0.312-0.221,0.473-0.601,0.411-0.979l-0.627-3.844l2.647-2.713  C15.978,8.014,16.067,7.622,15.948,7.267z M11.284,9.96c-0.222,0.227-0.322,0.546-0.271,0.859l0.377,2.31l-1.906-1.054  C9.333,11.992,9.167,11.95,9,11.95s-0.333,0.042-0.483,0.125L6.61,13.129l0.377-2.31c0.051-0.313-0.05-0.633-0.271-0.859  L5.075,8.278l2.222-0.34c0.329-0.05,0.612-0.262,0.754-0.563L9,5.354l0.949,2.021c0.142,0.302,0.425,0.514,0.754,0.563l2.222,0.34  L11.284,9.96z"></path><path d="M61,2H48c-0.553,0-1,0.447-1,1v9c0,0.553,0.447,1,1,1h3v4c0,0.404,0.243,0.77,0.617,0.924C51.741,17.976,51.871,18,52,18  c0.26,0,0.516-0.102,0.707-0.293L57.414,13H61c0.553,0,1-0.447,1-1V3C62,2.447,61.553,2,61,2z M60,11h-3  c-0.266,0-0.52,0.105-0.707,0.293L53,14.586V12c0-0.553-0.447-1-1-1h-3V4h11V11z"></path><path d="M10,62c4.411,0,8-3.589,8-8s-3.589-8-8-8s-8,3.589-8,8S5.589,62,10,62z M10,48c3.309,0,6,2.691,6,6s-2.691,6-6,6  s-6-2.691-6-6S6.691,48,10,48z"></path><path d="M13,51L13,51c-0.552,0-1,0.448-1,1l0,0c0,0.552,0.448,1,1,1h0c0.552,0,1-0.448,1-1l0,0C14,51.448,13.552,51,13,51z"></path><path d="M7,51L7,51c-0.552,0-1,0.448-1,1l0,0c0,0.552,0.448,1,1,1h0c0.552,0,1-0.448,1-1l0,0C8,51.448,7.552,51,7,51z"></path><path d="M10,58c1.128,0,2.113-0.626,2.625-1.549C12.986,55.8,12.473,55,11.728,55h-0.002c-0.342,0-0.682,0.162-0.841,0.465  C10.718,55.783,10.384,56,10,56s-0.718-0.217-0.885-0.535C8.955,55.162,8.615,55,8.273,55H8.272c-0.744,0-1.258,0.8-0.897,1.451  C7.887,57.374,8.872,58,10,58z"></path><path d="M49.515,51.136c-1.56,1.56-1.56,4.098,0,5.657l4.95,4.949c0.195,0.195,0.451,0.293,0.707,0.293s0.512-0.098,0.707-0.293  l4.949-4.949c1.56-1.56,1.56-4.098,0-5.657c-1.559-1.561-4.098-1.561-5.656,0C53.611,49.577,51.075,49.577,49.515,51.136z   M53.758,52.55l0.707,0.707c0.391,0.391,1.023,0.391,1.414,0l0.707-0.707c0.779-0.779,2.049-0.779,2.828,0  c0.78,0.78,0.78,2.049,0,2.829l-4.242,4.242l-4.243-4.242c-0.78-0.78-0.78-2.049,0-2.829c0.39-0.39,0.902-0.584,1.415-0.584  C52.855,51.966,53.368,52.16,53.758,52.55z"></path><path d="M7.111,19.159C5.076,23.098,4,27.538,4,32c0,4.525,1.047,8.845,3.111,12.84l1.777-0.918C6.972,40.214,6,36.202,6,32  c0-4.203,0.972-8.215,2.889-11.923L7.111,19.159z"></path><path d="M32,58c-4.06,0-7.947-0.909-11.555-2.702l-0.891,1.791C23.441,59.021,27.629,60,32,60c5.133,0,10.153-1.401,14.52-4.054  l-1.039-1.709C41.428,56.699,36.767,58,32,58z"></path><path d="M54.814,48.236C58.207,43.479,60,37.864,60,32c0-5.134-1.402-10.154-4.055-14.52l-1.709,1.039  C56.698,22.571,58,27.233,58,32c0,5.445-1.665,10.658-4.814,15.076L54.814,48.236z"></path><path d="M18.518,7.454l0.965,1.752C23.292,7.108,27.621,6,32,6s8.708,1.108,12.518,3.206l0.965-1.752C41.378,5.194,36.716,4,32,4  S22.622,5.194,18.518,7.454z"></path></svg>