<svg height='100px' width='100px'  fill="#9a1a18" xmlns:dc="http://purl.org/dc/elements/1.1/" xmlns:cc="http://creativecommons.org/ns#" xmlns:rdf="http://www.w3.org/1999/02/22-rdf-syntax-ns#" xmlns:svg="http://www.w3.org/2000/svg" xmlns="http://www.w3.org/2000/svg" xmlns:sodipodi="http://sodipodi.sourceforge.net/DTD/sodipodi-0.dtd" xmlns:inkscape="http://www.inkscape.org/namespaces/inkscape" viewBox="0 0 25.399999 25.400001" version="1.1" x="0px" y="0px"><g transform="translate(0,-271.59998)"><path style="color:#000000;font-style:normal;font-variant:normal;font-weight:normal;font-stretch:normal;font-size:medium;line-height:normal;font-family:sans-serif;font-variant-ligatures:normal;font-variant-position:normal;font-variant-caps:normal;font-variant-numeric:normal;font-variant-alternates:normal;font-feature-settings:normal;text-indent:0;text-align:start;text-decoration:none;text-decoration-line:none;text-decoration-style:solid;text-decoration-color:#000000;letter-spacing:normal;word-spacing:normal;text-transform:none;writing-mode:lr-tb;direction:ltr;text-orientation:mixed;dominant-baseline:auto;baseline-shift:baseline;text-anchor:start;white-space:normal;shape-padding:0;clip-rule:nonzero;display:inline;overflow:visible;visibility:visible;opacity:1;isolation:auto;mix-blend-mode:normal;color-interpolation:sRGB;color-interpolation-filters:linearRGB;solid-color:#000000;solid-opacity:1;vector-effect:none;fill:#9a1a18;fill-opacity:1;fill-rule:nonzero;stroke:none;stroke-width:3.99999976;stroke-linecap:round;stroke-linejoin:round;stroke-miterlimit:4;stroke-dasharray:none;stroke-dashoffset:0;stroke-opacity:1;paint-order:stroke fill markers;color-rendering:auto;image-rendering:auto;shape-rendering:auto;text-rendering:auto;enable-background:accumulate" d="M 55.998047 8 C 51.603458 8 47.996094 11.607383 47.996094 16.001953 C 47.996094 17.725561 48.558361 19.322929 49.498047 20.632812 C 43.721144 21.757168 38.461287 24.343451 34.125 27.996094 L 19.998047 27.996094 C 17.330709 27.996094 17.330709 31.998047 19.998047 31.998047 L 30.105469 31.998047 C 28.060821 34.400655 26.349919 37.093543 25.029297 40 L 12.003906 40 C 9.3365685 40 9.3365685 44 12.003906 44 L 23.509766 44 C 22.721093 46.553184 22.224391 49.232467 22.0625 52.001953 L 8.0019531 52.001953 C 5.3346158 52.001953 5.3346158 56.003906 8.0019531 56.003906 L 22.0625 56.003906 C 22.224124 58.770861 22.718475 61.447508 23.505859 63.998047 L 12.003906 63.998047 C 9.3365685 63.998047 9.3365685 68 12.003906 68 L 25.027344 68 C 26.347869 70.90657 28.058539 73.599232 30.103516 76.001953 L 19.998047 76.001953 C 17.33071 76.001953 17.33071 80.001953 19.998047 80.001953 L 34.119141 80.001953 C 40.036078 84.986356 47.669004 87.996094 55.998047 87.996094 C 74.75204 87.996094 90 72.757884 90 54.003906 C 90 37.473867 78.151594 23.674787 62.5 20.632812 C 63.439686 19.322929 64.001953 17.725561 64.001953 16.001953 C 64.001953 11.607383 60.392636 8 55.998047 8 z M 55.998047 12.001953 C 58.230875 12.001953 60 13.769159 60 16.001953 C 60 18.229416 58.238895 19.993479 56.013672 20.001953 C 56.008437 20.001951 56.003282 20.001953 55.998047 20.001953 C 55.992813 20.001953 55.987655 20.001951 55.982422 20.001953 C 53.757217 19.993458 51.998047 18.229403 51.998047 16.001953 C 51.998047 13.769159 53.765219 12.001953 55.998047 12.001953 z M 55.998047 24.003906 C 72.590279 24.003906 85.998047 37.411667 85.998047 54.003906 C 85.998047 70.596146 72.590279 84.003906 55.998047 84.003906 C 39.405815 84.003906 25.998047 70.596146 25.998047 54.003906 C 25.998047 37.411667 39.405815 24.003906 55.998047 24.003906 z " transform="matrix(0.26458333,0,0,0.26458333,0,271.59998)"></path><path style="opacity:1;fill:#9a1a18;fill-opacity:1;stroke:none;stroke-width:1.05833328;stroke-linecap:round;stroke-linejoin:round;stroke-miterlimit:4;stroke-dasharray:none;stroke-dashoffset:0;stroke-opacity:1;paint-order:stroke fill markers" d="m 15.345833,279.53749 a 0.52916664,0.52916664 0 0 1 -0.529166,0.52917 0.52916664,0.52916664 0 0 1 -0.529167,-0.52917 0.52916664,0.52916664 0 0 1 0.529167,-0.52916 0.52916664,0.52916664 0 0 1 0.529166,0.52916 z"></path><path style="opacity:1;fill:#9a1a18;fill-opacity:1;stroke:none;stroke-width:1.05833328;stroke-linecap:round;stroke-linejoin:round;stroke-miterlimit:4;stroke-dasharray:none;stroke-dashoffset:0;stroke-opacity:1;paint-order:stroke fill markers" d="m 21.167023,286.417 a 0.52916664,0.52916664 0 0 1 -0.529167,-0.52917 0.52916664,0.52916664 0 0 1 0.529167,-0.52916 0.52916664,0.52916664 0 0 1 0.529166,0.52916 0.52916664,0.52916664 0 0 1 -0.529166,0.52917 z"></path><path style="opacity:1;fill:#9a1a18;fill-opacity:1;stroke:none;stroke-width:1.05833328;stroke-linecap:round;stroke-linejoin:round;stroke-miterlimit:4;stroke-dasharray:none;stroke-dashoffset:0;stroke-opacity:1;paint-order:stroke fill markers" d="m 14.287513,292.23821 a 0.52916664,0.52916664 0 0 1 0.529167,-0.52917 0.52916664,0.52916664 0 0 1 0.529167,0.52917 0.52916664,0.52916664 0 0 1 -0.529167,0.52916 0.52916664,0.52916664 0 0 1 -0.529167,-0.52916 z"></path><path style="opacity:1;fill:#9a1a18;fill-opacity:1;stroke:none;stroke-width:1.05833328;stroke-linecap:round;stroke-linejoin:round;stroke-miterlimit:4;stroke-dasharray:none;stroke-dashoffset:0;stroke-opacity:1;paint-order:stroke fill markers" d="m 8.4663076,285.3587 a 0.52916664,0.52916664 0 0 1 0.5291667,0.52916 0.52916664,0.52916664 0 0 1 -0.5291667,0.52917 0.52916664,0.52916664 0 0 1 -0.5291666,-0.52917 0.52916664,0.52916664 0 0 1 0.5291666,-0.52916 z"></path><path style="opacity:1;fill:#9a1a18;fill-opacity:1;stroke:none;stroke-width:1.05833328;stroke-linecap:round;stroke-linejoin:round;stroke-miterlimit:4;stroke-dasharray:none;stroke-dashoffset:0;stroke-opacity:1;paint-order:stroke fill markers" d="m 10.700456,281.02329 a 0.52916664,0.52916664 0 0 1 0,0.74836 0.52916664,0.52916664 0 0 1 -0.7483594,0 0.52916664,0.52916664 0 0 1 7.1e-6,-0.74836 0.52916664,0.52916664 0 0 1 0.7483523,0 z"></path><path style="opacity:1;fill:#9a1a18;fill-opacity:1;stroke:none;stroke-width:1.05833328;stroke-linecap:round;stroke-linejoin:round;stroke-miterlimit:4;stroke-dasharray:none;stroke-dashoffset:0;stroke-opacity:1;paint-order:stroke fill markers" d="m 18.932883,290.75239 a 0.52916664,0.52916664 0 0 1 0,-0.74836 0.52916664,0.52916664 0 0 1 0.748359,0 0.52916664,0.52916664 0 0 1 -7e-6,0.74835 0.52916664,0.52916664 0 0 1 -0.748352,10e-6 z"></path><path style="opacity:1;fill:#9a1a18;fill-opacity:1;stroke:none;stroke-width:1.05833328;stroke-linecap:round;stroke-linejoin:round;stroke-miterlimit:4;stroke-dasharray:none;stroke-dashoffset:0;stroke-opacity:1;paint-order:stroke fill markers" d="m 9.9521249,290.00405 a 0.52916664,0.52916664 0 0 1 0.7483521,10e-6 0.52916664,0.52916664 0 0 1 0,0.74834 0.52916664,0.52916664 0 0 1 -0.7483521,10e-6 0.52916664,0.52916664 0 0 1 0,-0.74836 z"></path><path style="opacity:1;fill:#9a1a18;fill-opacity:1;stroke:none;stroke-width:1.05833328;stroke-linecap:round;stroke-linejoin:round;stroke-miterlimit:4;stroke-dasharray:none;stroke-dashoffset:0;stroke-opacity:1;paint-order:stroke fill markers" d="m 19.681214,281.77162 a 0.52916664,0.52916664 0 0 1 -0.748359,0 0.52916664,0.52916664 0 0 1 7e-6,-0.74835 0.52916664,0.52916664 0 0 1 0.748352,0 0.52916664,0.52916664 0 0 1 0,0.74835 z"></path><path style="color:#000000;font-style:normal;font-variant:normal;font-weight:normal;font-stretch:normal;font-size:medium;line-height:normal;font-family:sans-serif;font-variant-ligatures:normal;font-variant-position:normal;font-variant-caps:normal;font-variant-numeric:normal;font-variant-alternates:normal;font-feature-settings:normal;text-indent:0;text-align:start;text-decoration:none;text-decoration-line:none;text-decoration-style:solid;text-decoration-color:#000000;letter-spacing:normal;word-spacing:normal;text-transform:none;writing-mode:lr-tb;direction:ltr;text-orientation:mixed;dominant-baseline:auto;baseline-shift:baseline;text-anchor:start;white-space:normal;shape-padding:0;clip-rule:nonzero;display:inline;overflow:visible;visibility:visible;opacity:1;isolation:auto;mix-blend-mode:normal;color-interpolation:sRGB;color-interpolation-filters:linearRGB;solid-color:#000000;solid-opacity:1;vector-effect:none;fill:#9a1a18;fill-opacity:1;fill-rule:nonzero;stroke:none;stroke-width:1.05833328;stroke-linecap:round;stroke-linejoin:round;stroke-miterlimit:4;stroke-dasharray:none;stroke-dashoffset:0;stroke-opacity:1;color-rendering:auto;image-rendering:auto;shape-rendering:auto;text-rendering:auto;enable-background:accumulate" d="m 14.808594,281.11681 a 0.52921956,0.52921956 0 0 0 -0.521485,0.53711 v 4.23437 a 0.52921956,0.52921956 0 0 0 0.15625,0.37305 l 2.644532,2.64648 a 0.52921956,0.52921956 0 1 0 0.748047,-0.74804 l -2.490235,-2.49219 v -4.01367 a 0.52921956,0.52921956 0 0 0 -0.537109,-0.53711 z"></path></g></svg>